<svg xmlns="http://www.w3.org/2000/svg" viewBox="0 0 295 462" width="295" height="462">
  <rect x="26.408" y="56.403" width="244.718" height="352.699" style="stroke: rgba(255, 255, 255, 0); fill: rgb(255, 255, 255); paint-order: fill;" transform="matrix(0.9999999999999999, 0, 0, 0.9999999999999999, -7.105427357601002e-15, 0)"/>
  <path d="M 39.034 4.605 C 20.711 4.605 5.854 19.462 5.854 37.785 L 5.854 424.2 C 5.854 442.523 20.711 457.38 39.034 457.38 L 255.389 457.38 C 273.713 457.38 288.569 442.523 288.569 424.2 L 288.569 37.785 C 288.569 19.462 273.713 4.605 255.389 4.605 L 39.034 4.605 Z M 50.226 62.645 L 244.183 62.645 C 253.423 62.645 260.922 70.13 260.922 79.384 L 260.922 382.318 C 260.922 391.558 253.437 399.042 244.183 399.042 L 50.226 399.042 C 40.986 399.042 33.487 391.558 33.487 382.318 L 33.487 79.384 C 33.487 70.144 40.972 62.645 50.226 62.645 Z M 54.06 137.707 L 54.06 206.061 L 122.415 206.061 L 122.415 137.707 L 54.06 137.707 Z M 140.201 137.707 L 140.201 158.421 L 154.208 158.421 L 154.208 137.707 L 140.201 137.707 Z M 171.994 137.707 L 171.994 206.061 L 240.349 206.061 L 240.349 137.707 L 171.994 137.707 Z M 68.068 151.714 L 108.407 151.714 L 108.407 192.054 L 68.068 192.054 L 68.068 151.714 Z M 186.002 151.714 L 226.341 151.714 L 226.341 192.054 L 186.002 192.054 L 186.002 151.714 Z M 76.501 160.133 L 76.501 183.621 L 99.989 183.621 L 99.989 160.133 L 76.501 160.133 Z M 194.42 160.133 L 194.42 183.621 L 217.908 183.621 L 217.908 160.133 L 194.42 160.133 Z M 140.201 166.684 L 140.201 206.061 L 154.208 206.061 L 154.208 166.684 L 140.201 166.684 Z M 170.876 223.847 L 170.876 283.712 L 135.079 283.712 L 135.079 297.72 L 184.884 297.72 L 184.884 223.847 L 170.876 223.847 Z M 200.137 223.847 L 200.137 297.72 L 214.144 297.72 L 214.144 223.847 L 200.137 223.847 Z M 226.327 223.847 L 226.327 242.312 L 240.335 242.312 L 240.335 223.847 L 226.327 223.847 Z M 54.06 224.569 L 54.06 238.576 L 140.201 238.576 L 140.201 265.969 L 154.208 265.969 L 154.208 224.569 L 54.06 224.569 Z M 54.06 255.626 L 54.06 323.981 L 122.415 323.981 L 122.415 255.626 L 54.06 255.626 Z M 226.327 266.903 L 226.327 309.973 L 198.255 309.973 L 198.255 323.981 L 240.335 323.981 L 240.335 266.903 L 226.327 266.903 Z M 68.068 269.634 L 108.407 269.634 L 108.407 309.973 L 68.068 309.973 L 68.068 269.634 Z M 76.501 278.067 L 76.501 301.554 L 99.989 301.554 L 99.989 278.067 L 76.501 278.067 Z M 158.425 309.973 L 158.425 323.981 L 184.884 323.981 L 184.884 309.973 L 158.425 309.973 Z M 147.205 409.782 C 157.378 409.782 165.641 418.031 165.641 428.218 C 165.641 438.406 157.392 446.655 147.205 446.655 C 137.031 446.655 128.768 438.406 128.768 428.218 C 128.768 418.031 137.017 409.782 147.205 409.782 Z" style="transform-origin: 147.219px 230.992px;"/>
</svg>